<svg xmlns="http://www.w3.org/2000/svg" xmlns:xlink="http://www.w3.org/1999/xlink" version="1.1" width="256" height="256" viewBox="0 0 256 256" xml:space="preserve">

<defs>
</defs>
<g style="stroke: none; stroke-width: 0; stroke-dasharray: none; stroke-linecap: butt; stroke-linejoin: miter; stroke-miterlimit: 10; fill: none; fill-rule: nonzero; opacity: 1;" transform="translate(1.4065934065934016 1.4065934065934016) scale(2.81 2.81)" >
	<path d="M 72.742 90 H 17.258 c -1.186 0 -2.147 -0.961 -2.147 -2.147 V 2.147 C 15.111 0.961 16.072 0 17.258 0 h 55.484 c 1.186 0 2.147 0.961 2.147 2.147 v 85.706 C 74.889 89.039 73.928 90 72.742 90 z" style="stroke: none; stroke-width: 1; stroke-dasharray: none; stroke-linecap: butt; stroke-linejoin: miter; stroke-miterlimit: 10; fill: rgb(144,143,144); fill-rule: nonzero; opacity: 1;" transform=" matrix(1 0 0 1 0 0) " stroke-linecap="round" />
	<rect x="23.29" y="8.18" rx="0" ry="0" width="43.41" height="71.59" style="stroke: none; stroke-width: 1; stroke-dasharray: none; stroke-linecap: butt; stroke-linejoin: miter; stroke-miterlimit: 10; fill: rgb(174,174,174); fill-rule: nonzero; opacity: 1;" transform=" matrix(1 0 0 1 0 0) "/>
	<path d="M 46.434 85.9 h -2.867 c -0.552 0 -1 -0.447 -1 -1 s 0.448 -1 1 -1 h 2.867 c 0.553 0 1 0.447 1 1 S 46.986 85.9 46.434 85.9 z" style="stroke: none; stroke-width: 1; stroke-dasharray: none; stroke-linecap: butt; stroke-linejoin: miter; stroke-miterlimit: 10; fill: rgb(124,116,124); fill-rule: nonzero; opacity: 1;" transform=" matrix(1 0 0 1 0 0) " stroke-linecap="round" />
	<path d="M 45.561 64.638 c -1.766 2.624 0.902 6.383 4.339 4 c 0.813 -0.576 1.863 -0.908 3.181 -0.963 l 31.091 0.09 V 25.786 H 50.977 L 45.561 64.638" style="stroke: none; stroke-width: 1; stroke-dasharray: none; stroke-linecap: butt; stroke-linejoin: miter; stroke-miterlimit: 10; fill: rgb(230,76,60); fill-rule: nonzero; opacity: 1;" transform=" matrix(1 0 0 1 0 0) " stroke-linecap="round" />
	<path d="M 44.439 64.638 c 1.766 2.624 -0.902 6.383 -4.339 4 c -0.813 -0.576 -1.863 -0.908 -3.181 -0.963 l -31.091 0.09 V 25.786 h 33.195 L 44.439 64.638" style="stroke: none; stroke-width: 1; stroke-dasharray: none; stroke-linecap: butt; stroke-linejoin: miter; stroke-miterlimit: 10; fill: rgb(230,76,60); fill-rule: nonzero; opacity: 1;" transform=" matrix(1 0 0 1 0 0) " stroke-linecap="round" />
	<path d="M 45.018 66.122 c 0.731 -3.326 3.753 -4.766 7.645 -4.766 h 25.906 v -40.99 H 52.663 c -3.892 0 -6.667 1.185 -7.663 4.017" style="stroke: none; stroke-width: 1; stroke-dasharray: none; stroke-linecap: butt; stroke-linejoin: miter; stroke-miterlimit: 10; fill: rgb(185,185,185); fill-rule: nonzero; opacity: 1;" transform=" matrix(1 0 0 1 0 0) " stroke-linecap="round" />
	<path d="M 44.982 66.122 c -0.731 -3.326 -3.753 -4.766 -7.645 -4.766 H 11.431 v -40.99 h 25.906 c 3.892 0 6.667 1.185 7.663 4.017 L 44.982 66.122 z" style="stroke: none; stroke-width: 1; stroke-dasharray: none; stroke-linecap: butt; stroke-linejoin: miter; stroke-miterlimit: 10; fill: rgb(244,244,241); fill-rule: nonzero; opacity: 1;" transform=" matrix(1 0 0 1 0 0) " stroke-linecap="round" />
	<line x1="0" y1="-20.869" x2="0" y2="20.869" style="stroke: none; stroke-width: 1; stroke-dasharray: none; stroke-linecap: butt; stroke-linejoin: miter; stroke-miterlimit: 10; fill: none; fill-rule: nonzero; opacity: 1;" transform=" matrix(1 0 0 1 0 0) "/>
	<path d="M 38.133 31.769 c -0.251 0 -0.503 -0.094 -0.697 -0.283 c -1.946 -1.892 -4.595 -1.883 -6.927 -1.885 l -14.703 0 c -0.552 0 -1 -0.448 -1 -1 s 0.448 -1 1 -1 l 14.7 0 c 2.444 -0.007 5.794 -0.008 8.324 2.452 c 0.396 0.385 0.405 1.018 0.02 1.414 C 38.654 31.668 38.394 31.769 38.133 31.769 z" style="stroke: none; stroke-width: 1; stroke-dasharray: none; stroke-linecap: butt; stroke-linejoin: miter; stroke-miterlimit: 10; fill: rgb(185,185,185); fill-rule: nonzero; opacity: 1;" transform=" matrix(1 0 0 1 0 0) " stroke-linecap="round" />
	<path d="M 38.133 39.546 c -0.251 0 -0.503 -0.094 -0.697 -0.283 c -1.946 -1.892 -4.595 -1.89 -6.927 -1.885 l -14.703 0 c -0.552 0 -1 -0.448 -1 -1 s 0.448 -1 1 -1 l 14.7 0 c 2.444 -0.005 5.794 -0.008 8.324 2.452 c 0.396 0.385 0.405 1.018 0.02 1.414 C 38.654 39.445 38.394 39.546 38.133 39.546 z" style="stroke: none; stroke-width: 1; stroke-dasharray: none; stroke-linecap: butt; stroke-linejoin: miter; stroke-miterlimit: 10; fill: rgb(185,185,185); fill-rule: nonzero; opacity: 1;" transform=" matrix(1 0 0 1 0 0) " stroke-linecap="round" />
	<path d="M 38.133 47.323 c -0.251 0 -0.503 -0.094 -0.697 -0.283 c -1.945 -1.892 -4.583 -1.875 -6.925 -1.885 l -14.704 0 c -0.552 0 -1 -0.448 -1 -1 s 0.448 -1 1 -1 l 14.701 0 c 2.436 -0.001 5.792 -0.009 8.323 2.451 c 0.396 0.385 0.405 1.018 0.02 1.414 C 38.654 47.222 38.394 47.323 38.133 47.323 z" style="stroke: none; stroke-width: 1; stroke-dasharray: none; stroke-linecap: butt; stroke-linejoin: miter; stroke-miterlimit: 10; fill: rgb(185,185,185); fill-rule: nonzero; opacity: 1;" transform=" matrix(1 0 0 1 0 0) " stroke-linecap="round" />
	<path d="M 38.133 55.101 c -0.251 0 -0.503 -0.094 -0.697 -0.283 c -1.946 -1.892 -4.589 -1.887 -6.928 -1.885 H 15.806 c -0.552 0 -1 -0.447 -1 -1 s 0.448 -1 1 -1 h 14.699 c 2.45 0.004 5.795 -0.008 8.325 2.451 c 0.396 0.385 0.405 1.018 0.02 1.414 C 38.654 54.999 38.394 55.101 38.133 55.101 z" style="stroke: none; stroke-width: 1; stroke-dasharray: none; stroke-linecap: butt; stroke-linejoin: miter; stroke-miterlimit: 10; fill: rgb(185,185,185); fill-rule: nonzero; opacity: 1;" transform=" matrix(1 0 0 1 0 0) " stroke-linecap="round" />
	<path d="M 51.867 31.769 c -0.261 0 -0.521 -0.101 -0.717 -0.303 c -0.385 -0.396 -0.376 -1.029 0.02 -1.415 c 2.529 -2.459 5.861 -2.457 8.324 -2.451 l 14.699 0 c 0.553 0 1 0.448 1 1 s -0.447 1 -1 1 l -14.702 0 c -2.338 0.004 -4.98 -0.007 -6.927 1.886 C 52.37 31.675 52.118 31.769 51.867 31.769 z" style="stroke: none; stroke-width: 1; stroke-dasharray: none; stroke-linecap: butt; stroke-linejoin: miter; stroke-miterlimit: 10; fill: rgb(0,0,0); fill-rule: nonzero; opacity: 1;" transform=" matrix(1 0 0 1 0 0) " stroke-linecap="round" />
	<path d="M 51.867 39.546 c -0.261 0 -0.521 -0.101 -0.717 -0.303 c -0.385 -0.396 -0.376 -1.029 0.02 -1.415 c 2.529 -2.459 5.861 -2.455 8.324 -2.451 l 14.699 0 c 0.553 0 1 0.448 1 1 s -0.447 1 -1 1 l -14.702 0 c -2.338 0.01 -4.98 -0.007 -6.927 1.886 C 52.37 39.452 52.118 39.546 51.867 39.546 z" style="stroke: none; stroke-width: 1; stroke-dasharray: none; stroke-linecap: butt; stroke-linejoin: miter; stroke-miterlimit: 10; fill: rgb(0,0,0); fill-rule: nonzero; opacity: 1;" transform=" matrix(1 0 0 1 0 0) " stroke-linecap="round" />
	<path d="M 51.867 47.323 c -0.261 0 -0.521 -0.102 -0.717 -0.303 c -0.385 -0.396 -0.376 -1.029 0.02 -1.415 c 2.529 -2.459 5.886 -2.454 8.322 -2.451 l 14.701 0 c 0.553 0 1 0.448 1 1 s -0.447 1 -1 1 l -14.704 0 c -2.315 -0.002 -4.979 -0.007 -6.925 1.885 C 52.37 47.229 52.118 47.323 51.867 47.323 z" style="stroke: none; stroke-width: 1; stroke-dasharray: none; stroke-linecap: butt; stroke-linejoin: miter; stroke-miterlimit: 10; fill: rgb(0,0,0); fill-rule: nonzero; opacity: 1;" transform=" matrix(1 0 0 1 0 0) " stroke-linecap="round" />
	<path d="M 51.867 55.101 c -0.261 0 -0.521 -0.102 -0.717 -0.303 c -0.385 -0.396 -0.376 -1.029 0.02 -1.414 c 2.53 -2.46 5.887 -2.452 8.325 -2.451 h 14.698 c 0.553 0 1 0.447 1 1 s -0.447 1 -1 1 H 59.492 c -2.304 -0.001 -4.98 -0.008 -6.928 1.885 C 52.37 55.007 52.118 55.101 51.867 55.101 z" style="stroke: none; stroke-width: 1; stroke-dasharray: none; stroke-linecap: butt; stroke-linejoin: miter; stroke-miterlimit: 10; fill: rgb(0,0,0); fill-rule: nonzero; opacity: 1;" transform=" matrix(1 0 0 1 0 0) " stroke-linecap="round" />
</g>
</svg>